<svg width="24" height="25" viewBox="0 0 24 25" fill="none" xmlns="http://www.w3.org/2000/svg">
<path d="M17 2.07812H5C4.73478 2.07813 4.48043 2.18348 4.29289 2.37102C4.10536 2.55855 4 2.81291 4 3.07812V19.0781C4 19.3433 4.10536 19.5977 4.29289 19.7852C4.48043 19.9728 4.73478 20.0781 5 20.0781H6V21.0781C6 21.3433 6.10536 21.5977 6.29289 21.7852C6.48043 21.9728 6.73478 22.0781 7 22.0781C7.26522 22.0781 7.51957 21.9728 7.70711 21.7852C7.89464 21.5977 8 21.3433 8 21.0781V20.0781H17C17.7956 20.0781 18.5587 19.7621 19.1213 19.1994C19.6839 18.6368 20 17.8738 20 17.0781V5.07812C20 4.28248 19.6839 3.51941 19.1213 2.9568C18.5587 2.3942 17.7956 2.07813 17 2.07812ZM14 18.0781H6V4.07812H14V18.0781ZM18 17.0781C18 17.3433 17.8946 17.5977 17.7071 17.7852C17.5196 17.9728 17.2652 18.0781 17 18.0781H16V4.07812H17C17.2652 4.07812 17.5196 4.18348 17.7071 4.37102C17.8946 4.55855 18 4.81291 18 5.07812V17.0781Z" fill="white"/>
</svg>
