<svg width="24" height="25" viewBox="0 0 24 25" fill="none" xmlns="http://www.w3.org/2000/svg">
<path d="M12 2.07812C10.1435 2.07812 8.36301 2.81562 7.05025 4.12838C5.7375 5.44113 5 7.22161 5 9.07812V15.0781C5 16.9346 5.7375 18.7151 7.05025 20.0279C8.36301 21.3406 10.1435 22.0781 12 22.0781C13.8565 22.0781 15.637 21.3406 16.9497 20.0279C18.2625 18.7151 19 16.9346 19 15.0781V9.07812C19 7.22161 18.2625 5.44113 16.9497 4.12838C15.637 2.81562 13.8565 2.07813 12 2.07812ZM7 9.07812C6.99976 7.92547 7.39778 6.80814 8.12669 5.91522C8.8556 5.02231 9.87064 4.40866 11 4.17812V10.0781H7V9.07812ZM17 15.0781C17 16.4042 16.4732 17.676 15.5355 18.6137C14.5979 19.5513 13.3261 20.0781 12 20.0781C10.6739 20.0781 9.40215 19.5513 8.46447 18.6137C7.52678 17.676 7 16.4042 7 15.0781V12.0781H17V15.0781ZM17 10.0781H13V4.17812C14.1294 4.40866 15.1444 5.02231 15.8733 5.91522C16.6022 6.80814 17.0002 7.92547 17 9.07812V10.0781Z" fill="white"/>
</svg>
