<svg width="24" height="25" viewBox="0 0 24 25" fill="none" xmlns="http://www.w3.org/2000/svg">
<path d="M21 14.0781H20V7.07812C20 6.28248 19.6839 5.51941 19.1213 4.9568C18.5587 4.3942 17.7956 4.07813 17 4.07812H7C6.20435 4.07812 5.44129 4.3942 4.87868 4.9568C4.31607 5.51941 4 6.28248 4 7.07812V14.0781H3C2.73478 14.0781 2.48043 14.1835 2.29289 14.371C2.10536 14.5586 2 14.8129 2 15.0781V17.0781C2 17.8738 2.31607 18.6368 2.87868 19.1994C3.44129 19.7621 4.20435 20.0781 5 20.0781H19C19.7956 20.0781 20.5587 19.7621 21.1213 19.1994C21.6839 18.6368 22 17.8738 22 17.0781V15.0781C22 14.8129 21.8946 14.5586 21.7071 14.371C21.5196 14.1835 21.2652 14.0781 21 14.0781ZM6 7.07812C6 6.81291 6.10536 6.55855 6.29289 6.37102C6.48043 6.18348 6.73478 6.07812 7 6.07812H17C17.2652 6.07812 17.5196 6.18348 17.7071 6.37102C17.8946 6.55855 18 6.81291 18 7.07812V14.0781H6V7.07812ZM20 17.0781C20 17.3433 19.8946 17.5977 19.7071 17.7852C19.5196 17.9728 19.2652 18.0781 19 18.0781H5C4.73478 18.0781 4.48043 17.9728 4.29289 17.7852C4.10536 17.5977 4 17.3433 4 17.0781V16.0781H20V17.0781Z" fill="white"/>
</svg>
