<svg width="20" height="21" viewBox="0 0 20 21" fill="none" xmlns="http://www.w3.org/2000/svg">
<path d="M17 0.078125H7C6.73478 0.078125 6.48043 0.209821 6.29289 0.444242C6.10536 0.678662 6 0.996604 6 1.32812V3.82812H1C0.734784 3.82812 0.48043 3.95982 0.292893 4.19424C0.105357 4.42866 0 4.7466 0 5.07812C0 5.40965 0.105357 5.72759 0.292893 5.96201C0.48043 6.19643 0.734784 6.32812 1 6.32812H6V11.3281C6 11.6596 6.10536 11.9776 6.29289 12.212C6.48043 12.4464 6.73478 12.5781 7 12.5781C7.26522 12.5781 7.51957 12.4464 7.70711 12.212C7.89464 11.9776 8 11.6596 8 11.3281V10.0781H12V18.8281C12 19.1596 12.1054 19.4776 12.2929 19.712C12.4804 19.9464 12.7348 20.0781 13 20.0781H15C15.7956 20.0781 16.5587 19.683 17.1213 18.9798C17.6839 18.2765 18 17.3227 18 16.3281V9.85312C18.5835 9.59523 19.089 9.11804 19.4471 8.48696C19.8051 7.85588 19.9983 7.10181 20 6.32812V3.82812C20 2.83356 19.6839 1.87974 19.1213 1.17647C18.5587 0.473213 17.7956 0.078125 17 0.078125ZM16 16.3281C16 16.6596 15.8946 16.9776 15.7071 17.212C15.5196 17.4464 15.2652 17.5781 15 17.5781H14V10.0781H16V16.3281ZM18 6.32812C18 6.65965 17.8946 6.97759 17.7071 7.21201C17.5196 7.44643 17.2652 7.57812 17 7.57812H8V2.57812H14V3.82812C14 4.15965 14.1054 4.47759 14.2929 4.71201C14.4804 4.94643 14.7348 5.07812 15 5.07812C15.2652 5.07812 15.5196 4.94643 15.7071 4.71201C15.8946 4.47759 16 4.15965 16 3.82812V2.57812H17C17.2652 2.57812 17.5196 2.70982 17.7071 2.94424C17.8946 3.17866 18 3.4966 18 3.82812V6.32812Z" fill="white"/>
</svg>
