<svg width="20" height="21" viewBox="0 0 20 21" fill="none" xmlns="http://www.w3.org/2000/svg">
<path d="M18.75 0.078125C18.4185 0.078125 18.1005 0.183482 17.8661 0.371018C17.6317 0.558555 17.5 0.812909 17.5 1.07812V6.53813L16.25 7.20813V1.07812C16.25 0.812909 16.1183 0.558555 15.8839 0.371018C15.6495 0.183482 15.3315 0.078125 15 0.078125C14.6685 0.078125 14.3505 0.183482 14.1161 0.371018C13.8817 0.558555 13.75 0.812909 13.75 1.07812V7.20813L12.5 6.53813V1.07812C12.5 0.812909 12.3683 0.558555 12.1339 0.371018C11.8995 0.183482 11.5815 0.078125 11.25 0.078125C10.9185 0.078125 10.6005 0.183482 10.3661 0.371018C10.1317 0.558555 10 0.812909 10 1.07812V7.07813C10.0011 7.24283 10.053 7.40478 10.1511 7.54958C10.2492 7.69437 10.3905 7.81754 10.5625 7.90812L13.75 9.61812V19.0781C13.75 19.3433 13.8817 19.5977 14.1161 19.7852C14.3505 19.9728 14.6685 20.0781 15 20.0781C15.3315 20.0781 15.6495 19.9728 15.8839 19.7852C16.1183 19.5977 16.25 19.3433 16.25 19.0781V9.61812L19.4375 7.90812C19.6094 7.81754 19.7508 7.69437 19.8489 7.54958C19.947 7.40478 19.9989 7.24283 20 7.07813V1.07812C20 0.812909 19.8683 0.558555 19.6339 0.371018C19.3995 0.183482 19.0815 0.078125 18.75 0.078125ZM6.25 0.078125C4.5924 0.078125 3.00268 0.604909 1.83058 1.54259C0.65848 2.48027 0 3.75204 0 5.07812V11.0781C0 11.3433 0.131696 11.5977 0.366117 11.7852C0.600537 11.9728 0.918479 12.0781 1.25 12.0781H5V19.0781C5 19.3433 5.1317 19.5977 5.36612 19.7852C5.60054 19.9728 5.91848 20.0781 6.25 20.0781C6.58152 20.0781 6.89946 19.9728 7.13388 19.7852C7.3683 19.5977 7.5 19.3433 7.5 19.0781V1.07812C7.5 0.812909 7.3683 0.558555 7.13388 0.371018C6.89946 0.183482 6.58152 0.078125 6.25 0.078125ZM5 10.0781H2.5V5.07812C2.49959 4.45747 2.73982 3.852 3.18757 3.34514C3.63532 2.83829 4.26855 2.45501 5 2.24813V10.0781Z" fill="white"/>
</svg>
