<svg width="24" height="21" viewBox="0 0 24 21" fill="none" xmlns="http://www.w3.org/2000/svg">
<path d="M20.3996 3.59721H18.8636L18.4796 2.42419C18.2307 1.7359 17.7689 1.14032 17.1583 0.719981C16.5477 0.299638 15.8185 0.0753369 15.0717 0.0781512H8.92781C8.17369 0.0795303 7.43905 0.312383 6.82758 0.743846C6.21611 1.17531 5.75869 1.78359 5.51989 2.48284L5.13589 3.65586H3.59993C2.64517 3.65586 1.72951 4.02662 1.05439 4.68657C0.379277 5.34652 0 6.2416 0 7.17492V16.5591C0 17.4924 0.379277 18.3875 1.05439 19.0474C1.72951 19.7074 2.64517 20.0781 3.59993 20.0781H20.3996C21.3543 20.0781 22.27 19.7074 22.9451 19.0474C23.6202 18.3875 23.9995 17.4924 23.9995 16.5591V7.17492C24.0075 6.70787 23.9202 6.24396 23.7429 5.81021C23.5655 5.37647 23.3016 4.98158 22.9666 4.64857C22.6315 4.31555 22.2319 4.05108 21.7912 3.87058C21.3505 3.69007 20.8774 3.59714 20.3996 3.59721ZM21.5996 16.5004C21.5996 16.8115 21.4731 17.1099 21.2481 17.3299C21.023 17.5499 20.7178 17.6734 20.3996 17.6734H3.59993C3.28167 17.6734 2.97645 17.5499 2.75141 17.3299C2.52638 17.1099 2.39995 16.8115 2.39995 16.5004V7.11627C2.39995 6.80516 2.52638 6.5068 2.75141 6.28682C2.97645 6.06683 3.28167 5.94325 3.59993 5.94325H5.99988C6.26155 5.9566 6.5205 5.88585 6.73718 5.74182C6.95386 5.59779 7.11636 5.38839 7.19985 5.14559L7.84784 3.22184C7.92834 2.98886 8.08171 2.78649 8.28627 2.64336C8.49084 2.50022 8.73625 2.42355 8.98781 2.42419H15.1317C15.3833 2.42355 15.6287 2.50022 15.8332 2.64336C16.0378 2.78649 16.1912 2.98886 16.2717 3.22184L16.9196 5.14559C16.9966 5.36934 17.1409 5.56517 17.3336 5.70748C17.5263 5.84979 17.7584 5.93196 17.9996 5.94325H20.3996C20.7178 5.94325 21.023 6.06683 21.2481 6.28682C21.4731 6.5068 21.5996 6.80516 21.5996 7.11627V16.5004ZM11.9998 5.94325C11.0504 5.94325 10.1224 6.21843 9.33307 6.734C8.54373 7.24958 7.92851 7.98238 7.56522 8.83974C7.20193 9.69711 7.10687 10.6405 7.29208 11.5507C7.47728 12.4609 7.93443 13.2969 8.60571 13.9531C9.27699 14.6093 10.1322 15.0562 11.0633 15.2372C11.9944 15.4183 12.9595 15.3254 13.8366 14.9702C14.7137 14.6151 15.4633 14.0137 15.9907 13.2421C16.5181 12.4705 16.7997 11.5633 16.7997 10.6353C16.7997 9.39091 16.2939 8.19746 15.3938 7.31752C14.4936 6.43759 13.2728 5.94325 11.9998 5.94325ZM11.9998 12.9814C11.5251 12.9814 11.0611 12.8438 10.6664 12.586C10.2717 12.3282 9.96413 11.9618 9.78249 11.5331C9.60084 11.1044 9.55331 10.6327 9.64591 10.1776C9.73852 9.72255 9.96709 9.30452 10.3027 8.97642C10.6384 8.64832 11.066 8.42488 11.5315 8.33436C11.9971 8.24384 12.4796 8.2903 12.9182 8.46787C13.3567 8.64543 13.7315 8.94613 13.9952 9.33193C14.2589 9.71774 14.3997 10.1713 14.3997 10.6353C14.3997 11.2575 14.1468 11.8543 13.6968 12.2942C13.2467 12.7342 12.6363 12.9814 11.9998 12.9814Z" fill="white"/>
</svg>
