<svg width="24" height="25" viewBox="0 0 24 25" fill="none" xmlns="http://www.w3.org/2000/svg">
<path d="M20 13.2581V11.0781C20 8.95639 19.1571 6.92156 17.6569 5.42127C16.1566 3.92098 14.1217 3.07813 12 3.07812C9.87827 3.07813 7.84344 3.92098 6.34315 5.42127C4.84285 6.92156 4 8.95639 4 11.0781V13.2581C3.41645 13.4644 2.911 13.8462 2.55294 14.3511C2.19488 14.8559 2.00174 15.4592 2 16.0781V18.0781C2 18.8738 2.31607 19.6368 2.87868 20.1994C3.44129 20.7621 4.20435 21.0781 5 21.0781H8C8.26522 21.0781 8.51957 20.9728 8.70711 20.7852C8.89464 20.5977 9 20.3433 9 20.0781V14.0781C9 13.8129 8.89464 13.5586 8.70711 13.371C8.51957 13.1835 8.26522 13.0781 8 13.0781H6V11.0781C6 9.48683 6.63214 7.9607 7.75736 6.83548C8.88258 5.71027 10.4087 5.07812 12 5.07812C13.5913 5.07812 15.1174 5.71027 16.2426 6.83548C17.3679 7.9607 18 9.48683 18 11.0781V13.0781H16C15.7348 13.0781 15.4804 13.1835 15.2929 13.371C15.1054 13.5586 15 13.8129 15 14.0781V20.0781C15 20.3433 15.1054 20.5977 15.2929 20.7852C15.4804 20.9728 15.7348 21.0781 16 21.0781H19C19.7956 21.0781 20.5587 20.7621 21.1213 20.1994C21.6839 19.6368 22 18.8738 22 18.0781V16.0781C21.9983 15.4592 21.8051 14.8559 21.4471 14.3511C21.089 13.8462 20.5835 13.4644 20 13.2581ZM7 15.0781V19.0781H5C4.73478 19.0781 4.48043 18.9728 4.29289 18.7852C4.10536 18.5977 4 18.3433 4 18.0781V16.0781C4 15.8129 4.10536 15.5586 4.29289 15.371C4.48043 15.1835 4.73478 15.0781 5 15.0781H7ZM20 18.0781C20 18.3433 19.8946 18.5977 19.7071 18.7852C19.5196 18.9728 19.2652 19.0781 19 19.0781H17V15.0781H19C19.2652 15.0781 19.5196 15.1835 19.7071 15.371C19.8946 15.5586 20 15.8129 20 16.0781V18.0781Z" fill="white"/>
</svg>
