<svg width="25" height="25" viewBox="0 0 25 25" fill="none" xmlns="http://www.w3.org/2000/svg">
<path d="M19.0097 3.01643L5.00975 3.06201C4.2141 3.0646 3.45208 3.38315 2.8913 3.94759C2.33053 4.51203 2.01694 5.27612 2.01953 6.07176L2.04558 14.0717C2.04817 14.8674 2.36672 15.6294 2.93116 16.1902C3.4956 16.7509 4.25968 17.0645 5.05533 17.0619L11.0553 17.0424L11.0618 19.0424L7.06183 19.0554C6.79662 19.0563 6.54261 19.1625 6.35568 19.3506C6.16876 19.5388 6.06423 19.7935 6.06509 20.0587C6.06596 20.3239 6.17214 20.5779 6.36029 20.7648C6.54843 20.9517 6.80313 21.0563 7.06834 21.0554L17.0683 21.0228C17.3335 21.022 17.5875 20.9158 17.7744 20.7277C17.9614 20.5395 18.0659 20.2848 18.065 20.0196C18.0642 19.7544 17.958 19.5004 17.7698 19.3134C17.5817 19.1265 17.327 19.022 17.0618 19.0229L13.0618 19.0359L13.0553 17.0359L19.0553 17.0164C19.8509 17.0138 20.6129 16.6952 21.1737 16.1308C21.7345 15.5663 22.0481 14.8023 22.0455 14.0066L22.0194 6.00665C22.0168 5.211 21.6983 4.44897 21.1338 3.8882C20.5694 3.32742 19.8053 3.01384 19.0097 3.01643ZM20.0455 14.0131C20.0463 14.2783 19.9418 14.533 19.7549 14.7212C19.568 14.9093 19.314 15.0155 19.0487 15.0164L5.04882 15.0619C4.7836 15.0628 4.52891 14.9583 4.34076 14.7714C4.15262 14.5844 4.04643 14.3304 4.04557 14.0652L4.01952 6.06525C4.01866 5.80004 4.12319 5.54534 4.31011 5.35719C4.49704 5.16905 4.75105 5.06286 5.01626 5.062L19.0162 5.01642C19.2814 5.01556 19.5361 5.12008 19.7242 5.30701C19.9124 5.49393 20.0186 5.74794 20.0194 6.01316L20.0455 14.0131Z" fill="white"/>
</svg>
