<svg width="28" height="48" viewBox="0 0 28 48" fill="none" xmlns="http://www.w3.org/2000/svg">
<path d="M26.3553 1.64344C26.9802 2.26853 27.3313 3.11622 27.3313 4.0001C27.3313 4.88398 26.9802 5.73168 26.3553 6.35677L8.71197 24.0001L26.3553 41.6434C26.9625 42.2721 27.2985 43.1141 27.2909 43.9881C27.2833 44.8621 26.9327 45.6981 26.3147 46.3162C25.6967 46.9342 24.8606 47.2848 23.9866 47.2924C23.1127 47.2999 22.2706 46.964 21.642 46.3568L1.64197 26.3568C1.01707 25.7317 0.666016 24.884 0.666016 24.0001C0.666016 23.1162 1.01707 22.2685 1.64197 21.6434L21.642 1.64344C22.2671 1.01853 23.1148 0.66748 23.9986 0.66748C24.8825 0.66748 25.7302 1.01853 26.3553 1.64344Z" fill="white"/>
</svg>
