<svg width="20" height="21" viewBox="0 0 20 21" fill="none" xmlns="http://www.w3.org/2000/svg">
<path d="M18.75 18.2599H17.5V16.7445C17.4961 16.2242 17.3694 15.7084 17.1255 15.2193C17.1119 15.1926 17.0975 15.1678 17.0807 15.1424C16.8782 14.741 16.5985 14.3624 16.25 14.0181L14.5001 12.3207C14.0146 11.8478 13.7515 11.2737 13.75 10.6836V9.76558C13.7529 9.04279 14.1474 8.34995 14.848 7.83732L15.6695 7.23983C16.6241 6.54188 17.2372 5.63537 17.4149 4.65949C17.4156 4.64684 17.4249 4.6363 17.4249 4.62353L17.4214 4.61105C17.4649 4.41749 17.4911 4.22208 17.5 4.02606V1.89631H18.75C19.0815 1.89631 19.3995 1.80053 19.6339 1.63004C19.8683 1.45955 20 1.22832 20 0.987216C20 0.74611 19.8683 0.514879 19.6339 0.344392C19.3995 0.173904 19.0815 0.078125 18.75 0.078125H1.25001C0.918492 0.078125 0.600549 0.173904 0.366129 0.344392C0.131708 0.514879 1.2517e-05 0.74611 1.2517e-05 0.987216C1.2517e-05 1.22832 0.131708 1.45955 0.366129 1.63004C0.600549 1.80053 0.918492 1.89631 1.25001 1.89631H2.50001V4.02606C2.50889 4.22208 2.53514 4.41749 2.5786 4.61105L2.57507 4.62358C2.57507 4.63631 2.58437 4.64689 2.58507 4.65953C2.76277 5.63542 3.37594 6.54192 4.33045 7.23988L5.15198 7.83736C5.8526 8.34998 6.24712 9.0428 6.25 9.76558V10.6836C6.24837 11.2736 5.98557 11.8477 5.50048 12.3207L3.74939 14.0181C3.40094 14.3626 3.12134 14.7412 2.91892 15.1428C2.9023 15.168 2.88802 15.1924 2.87452 15.2189C2.63059 15.7081 2.50391 16.2241 2.5 16.7445V18.2599H1.25C0.918479 18.2599 0.600537 18.3557 0.366116 18.5262C0.131696 18.6967 0 18.9279 0 19.169C0 19.4101 0.131696 19.6414 0.366116 19.8119C0.600537 19.9823 0.918479 20.0781 1.25 20.0781H18.75C19.0815 20.0781 19.3995 19.9823 19.6339 19.8119C19.8683 19.6414 20 19.4101 20 19.169C20 18.9279 19.8683 18.6967 19.6339 18.5262C19.3995 18.3557 19.0815 18.2599 18.75 18.2599ZM5 3.71449V1.89631H15V3.71449H5ZM6.09802 5.95437C5.92189 5.82568 5.76405 5.6844 5.62691 5.53267H14.3731C14.2359 5.6844 14.0781 5.82568 13.902 5.95437L13.0804 6.55185C12.1054 7.25681 11.4802 8.17746 11.3031 9.16903H8.69684C8.5198 8.17743 7.8946 7.25674 6.91955 6.55176L6.09802 5.95437ZM7.50061 13.4109C8.22388 12.706 8.65275 11.8646 8.73596 10.9872H11.264C11.3472 11.8647 11.7763 12.7062 12.5 13.4109L13.7501 14.6236H6.24953L7.50061 13.4109ZM15 18.2599H5V16.7445C5.00348 16.6432 5.01484 16.5421 5.03402 16.4418H14.966C14.9852 16.5421 14.9965 16.6432 15 16.7445V18.2599Z" fill="white"/>
</svg>
