<svg width="27" height="23" viewBox="0 0 27 23" fill="none" xmlns="http://www.w3.org/2000/svg">
<path d="M25.7739 17.0431L22.9621 14.5992C22.3573 14.1113 21.5944 13.788 20.7714 13.6709C19.9484 13.5538 19.1029 13.6483 18.3437 13.9421L17.1212 12.9046C18.5618 11.271 19.2197 9.23494 18.9625 7.20621C18.7053 5.17749 17.552 3.30678 15.7349 1.97067C13.9177 0.634566 11.5716 -0.0677331 9.16886 0.00515482C6.7661 0.0780427 4.48508 0.920705 2.78499 2.36351C1.08489 3.80631 0.0919598 5.74213 0.00607406 7.78126C-0.0798117 9.82039 0.747726 11.8114 2.3221 13.3536C3.89647 14.8957 6.10078 15.8744 8.49127 16.0927C10.8818 16.311 13.281 15.7527 15.2059 14.5301L16.4148 15.556C16.0278 16.2012 15.8891 16.9331 16.0183 17.6487C16.1474 18.3643 16.5379 19.0274 17.1347 19.5447L20.0145 21.9886C20.7785 22.6362 21.8143 23 22.8942 23C23.9741 23 25.0098 22.6362 25.7739 21.9886C26.162 21.6665 26.4704 21.2819 26.681 20.8572C26.8915 20.4326 27 19.9766 27 19.5159C27 19.0552 26.8915 18.5991 26.681 18.1745C26.4704 17.7499 26.162 17.3652 25.7739 17.0431ZM14.255 12.1553C13.3045 12.96 12.0943 13.5075 10.7773 13.7287C9.46025 13.9499 8.09553 13.8349 6.85549 13.3982C5.61545 12.9616 4.55573 12.2228 3.8102 11.2752C3.06466 10.3277 2.66677 9.21383 2.66677 8.07445C2.66677 6.93507 3.06466 5.82125 3.8102 4.8737C4.55573 3.92614 5.61545 3.18735 6.85549 2.75066C8.09553 2.31398 9.46025 2.19898 10.7773 2.42021C12.0943 2.64143 13.3045 3.18894 14.255 3.99359C14.8875 4.52901 15.3893 5.16506 15.7317 5.86532C16.0741 6.56559 16.2504 7.3163 16.2504 8.07445C16.2504 8.83261 16.0741 9.58332 15.7317 10.2836C15.3893 10.9838 14.8875 11.6199 14.255 12.1553ZM23.8586 20.3055C23.7323 20.4136 23.5821 20.4993 23.4166 20.5579C23.2511 20.6164 23.0735 20.6465 22.8942 20.6465C22.7149 20.6465 22.5373 20.6164 22.3718 20.5579C22.2063 20.4993 22.056 20.4136 21.9298 20.3055L19.05 17.8616C18.9227 17.7544 18.8217 17.6269 18.7527 17.4865C18.6837 17.346 18.6482 17.1953 18.6482 17.0431C18.6482 16.891 18.6837 16.7403 18.7527 16.5998C18.8217 16.4593 18.9227 16.3318 19.05 16.2247C19.1763 16.1166 19.3265 16.0308 19.4921 15.9723C19.6576 15.9138 19.8351 15.8837 20.0145 15.8837C20.1938 15.8837 20.3713 15.9138 20.5369 15.9723C20.7024 16.0308 20.8526 16.1166 20.9789 16.2247L23.8586 18.6686C23.9859 18.7757 24.087 18.9032 24.156 19.0437C24.2249 19.1842 24.2604 19.3349 24.2604 19.487C24.2604 19.6392 24.2249 19.7899 24.156 19.9304C24.087 20.0709 23.9859 20.1984 23.8586 20.3055Z" fill="black"/>
</svg>
