<svg width="24" height="25" viewBox="0 0 24 25" fill="none" xmlns="http://www.w3.org/2000/svg">
<path d="M4.93 17.7381C4.78955 17.8777 4.69372 18.0559 4.65465 18.2501C4.61558 18.4442 4.63504 18.6456 4.71055 18.8286C4.78606 19.0117 4.91423 19.1682 5.07881 19.2784C5.24339 19.3885 5.43697 19.4473 5.635 19.4473C5.83303 19.4473 6.02661 19.3885 6.19119 19.2784C6.35577 19.1682 6.48394 19.0117 6.55945 18.8286C6.63496 18.6456 6.65442 18.4442 6.61535 18.2501C6.57628 18.0559 6.48045 17.8777 6.34 17.7381C6.15264 17.5519 5.89919 17.4473 5.635 17.4473C5.37081 17.4473 5.11736 17.5519 4.93 17.7381ZM19.07 6.41812C19.2104 6.27851 19.3063 6.10034 19.3453 5.9062C19.3844 5.71205 19.365 5.51068 19.2894 5.32761C19.2139 5.14454 19.0858 4.98801 18.9212 4.87786C18.7566 4.76772 18.563 4.70892 18.365 4.70892C18.167 4.70892 17.9734 4.76772 17.8088 4.87786C17.6442 4.98801 17.5161 5.14454 17.4406 5.32761C17.365 5.51068 17.3456 5.71205 17.3847 5.9062C17.4237 6.10034 17.5196 6.27851 17.66 6.41812C17.8474 6.60438 18.1008 6.70892 18.365 6.70892C18.6292 6.70892 18.8826 6.60438 19.07 6.41812ZM6.34 6.41812C6.48045 6.27851 6.57628 6.10034 6.61535 5.9062C6.65442 5.71205 6.63496 5.51068 6.55945 5.32761C6.48394 5.14454 6.35577 4.98801 6.19119 4.87786C6.02661 4.76772 5.83303 4.70892 5.635 4.70892C5.43697 4.70892 5.24339 4.76772 5.07881 4.87786C4.91423 4.98801 4.78606 5.14454 4.71055 5.32761C4.63504 5.51068 4.61558 5.71205 4.65465 5.9062C4.69372 6.10034 4.78955 6.27851 4.93 6.41812C5.11736 6.60438 5.37081 6.70892 5.635 6.70892C5.89919 6.70892 6.15264 6.60438 6.34 6.41812ZM17.66 17.7381C17.5196 17.8777 17.4237 18.0559 17.3847 18.2501C17.3456 18.4442 17.365 18.6456 17.4406 18.8286C17.5161 19.0117 17.6442 19.1682 17.8088 19.2784C17.9734 19.3885 18.167 19.4473 18.365 19.4473C18.563 19.4473 18.7566 19.3885 18.9212 19.2784C19.0858 19.1682 19.2139 19.0117 19.2894 18.8286C19.365 18.6456 19.3844 18.4442 19.3453 18.2501C19.3063 18.0559 19.2104 17.8777 19.07 17.7381C18.8826 17.5519 18.6292 17.4473 18.365 17.4473C18.1008 17.4473 17.8474 17.5519 17.66 17.7381ZM21 11.0781H19.41L20.71 9.78812C20.8032 9.69489 20.8772 9.5842 20.9277 9.46237C20.9781 9.34055 21.0041 9.20998 21.0041 9.07812C21.0041 8.94627 20.9781 8.8157 20.9277 8.69387C20.8772 8.57205 20.8032 8.46136 20.71 8.36812C20.6168 8.27489 20.5061 8.20092 20.3842 8.15046C20.2624 8.1 20.1319 8.07403 20 8.07403C19.8681 8.07403 19.7376 8.1 19.6158 8.15046C19.4939 8.20092 19.3832 8.27489 19.29 8.36812L16.59 11.0781H14.41L16.71 8.78812C16.8032 8.69489 16.8772 8.5842 16.9277 8.46237C16.9781 8.34055 17.0041 8.20998 17.0041 8.07812C17.0041 7.94627 16.9781 7.8157 16.9277 7.69388C16.8772 7.57205 16.8032 7.46136 16.71 7.36812C16.6168 7.27489 16.5061 7.20093 16.3842 7.15047C16.2624 7.1 16.1319 7.07403 16 7.07403C15.8681 7.07403 15.7376 7.1 15.6158 7.15047C15.4939 7.20093 15.3832 7.27489 15.29 7.36812L13 9.66812V7.48812L15.71 4.78812C15.8032 4.69489 15.8772 4.5842 15.9277 4.46237C15.9781 4.34055 16.0041 4.20998 16.0041 4.07812C16.0041 3.94627 15.9781 3.8157 15.9277 3.69388C15.8772 3.57205 15.8032 3.46136 15.71 3.36812C15.6168 3.27489 15.5061 3.20093 15.3842 3.15047C15.2624 3.1 15.1319 3.07403 15 3.07403C14.7337 3.07403 14.4783 3.17982 14.29 3.36812L13 4.66812V3.07812C13 2.81291 12.8946 2.55855 12.7071 2.37102C12.5196 2.18348 12.2652 2.07813 12 2.07812C11.7348 2.07813 11.4804 2.18348 11.2929 2.37102C11.1054 2.55855 11 2.81291 11 3.07812V4.66812L9.71 3.36812C9.5217 3.17982 9.2663 3.07403 9 3.07403C8.7337 3.07403 8.4783 3.17982 8.29 3.36812C8.1017 3.55643 7.99591 3.81182 7.99591 4.07812C7.99591 4.34443 8.1017 4.59982 8.29 4.78812L11 7.48812V9.66812L8.71 7.36812C8.61676 7.27489 8.50607 7.20093 8.38425 7.15047C8.26243 7.1 8.13186 7.07403 8 7.07403C7.86814 7.07403 7.73757 7.1 7.61575 7.15047C7.49393 7.20093 7.38324 7.27489 7.29 7.36812C7.19676 7.46136 7.1228 7.57205 7.07234 7.69388C7.02188 7.8157 6.99591 7.94627 6.99591 8.07812C6.99591 8.20998 7.02188 8.34055 7.07234 8.46237C7.1228 8.5842 7.19676 8.69489 7.29 8.78812L9.59 11.0781H7.41L4.71 8.36812C4.5217 8.17982 4.2663 8.07403 4 8.07403C3.7337 8.07403 3.4783 8.17982 3.29 8.36812C3.1017 8.55643 2.99591 8.81182 2.99591 9.07812C2.99591 9.34443 3.1017 9.59982 3.29 9.78812L4.59 11.0781H3C2.73478 11.0781 2.48043 11.1835 2.29289 11.371C2.10536 11.5586 2 11.8129 2 12.0781C2 12.3433 2.10536 12.5977 2.29289 12.7852C2.48043 12.9728 2.73478 13.0781 3 13.0781H4.59L3.29 14.3681C3.19627 14.4611 3.12188 14.5717 3.07111 14.6935C3.02034 14.8154 2.9942 14.9461 2.9942 15.0781C2.9942 15.2101 3.02034 15.3408 3.07111 15.4627C3.12188 15.5846 3.19627 15.6952 3.29 15.7881C3.38296 15.8819 3.49356 15.9562 3.61542 16.007C3.73728 16.0578 3.86799 16.0839 4 16.0839C4.13201 16.0839 4.26272 16.0578 4.38458 16.007C4.50644 15.9562 4.61704 15.8819 4.71 15.7881L7.41 13.0781H9.59L7.29 15.3681C7.19627 15.4611 7.12188 15.5717 7.07111 15.6935C7.02034 15.8154 6.9942 15.9461 6.9942 16.0781C6.9942 16.2101 7.02034 16.3408 7.07111 16.4627C7.12188 16.5846 7.19627 16.6952 7.29 16.7881C7.38296 16.8819 7.49356 16.9562 7.61542 17.007C7.73728 17.0578 7.86799 17.0839 8 17.0839C8.13201 17.0839 8.26272 17.0578 8.38458 17.007C8.50644 16.9562 8.61704 16.8819 8.71 16.7881L11 14.4881V16.6681L8.29 19.3681C8.1017 19.5564 7.99591 19.8118 7.99591 20.0781C7.99591 20.3444 8.1017 20.5998 8.29 20.7881C8.4783 20.9764 8.7337 21.0822 9 21.0822C9.2663 21.0822 9.5217 20.9764 9.71 20.7881L11 19.4881V21.0781C11 21.3433 11.1054 21.5977 11.2929 21.7852C11.4804 21.9728 11.7348 22.0781 12 22.0781C12.2652 22.0781 12.5196 21.9728 12.7071 21.7852C12.8946 21.5977 13 21.3433 13 21.0781V19.4881L14.29 20.7881C14.383 20.8819 14.4936 20.9562 14.6154 21.007C14.7373 21.0578 14.868 21.0839 15 21.0839C15.132 21.0839 15.2627 21.0578 15.3846 21.007C15.5064 20.9562 15.617 20.8819 15.71 20.7881C15.8037 20.6952 15.8781 20.5846 15.9289 20.4627C15.9797 20.3408 16.0058 20.2101 16.0058 20.0781C16.0058 19.9461 15.9797 19.8154 15.9289 19.6935C15.8781 19.5717 15.8037 19.4611 15.71 19.3681L13 16.6681V14.4881L15.29 16.7881C15.383 16.8819 15.4936 16.9562 15.6154 17.007C15.7373 17.0578 15.868 17.0839 16 17.0839C16.132 17.0839 16.2627 17.0578 16.3846 17.007C16.5064 16.9562 16.617 16.8819 16.71 16.7881C16.8037 16.6952 16.8781 16.5846 16.9289 16.4627C16.9797 16.3408 17.0058 16.2101 17.0058 16.0781C17.0058 15.9461 16.9797 15.8154 16.9289 15.6935C16.8781 15.5717 16.8037 15.4611 16.71 15.3681L14.41 13.0781H16.59L19.29 15.7881C19.383 15.8819 19.4936 15.9562 19.6154 16.007C19.7373 16.0578 19.868 16.0839 20 16.0839C20.132 16.0839 20.2627 16.0578 20.3846 16.007C20.5064 15.9562 20.617 15.8819 20.71 15.7881C20.8037 15.6952 20.8781 15.5846 20.9289 15.4627C20.9797 15.3408 21.0058 15.2101 21.0058 15.0781C21.0058 14.9461 20.9797 14.8154 20.9289 14.6935C20.8781 14.5717 20.8037 14.4611 20.71 14.3681L19.41 13.0781H21C21.2652 13.0781 21.5196 12.9728 21.7071 12.7852C21.8946 12.5977 22 12.3433 22 12.0781C22 11.8129 21.8946 11.5586 21.7071 11.371C21.5196 11.1835 21.2652 11.0781 21 11.0781Z" fill="white"/>
</svg>
