<svg aria-hidden="true" style="position: absolute; width: 0; height: 0; overflow: hidden;" version="1.1" xmlns="http://www.w3.org/2000/svg" xmlns:xlink="http://www.w3.org/1999/xlink">
<defs>
<symbol id="icon-account" viewBox="0 0 32 32">
<path fill="#fff" style="fill: var(--color1, #fff)" d="M16.064 26.88c-6.016 0-10.88-4.864-10.88-10.88s4.864-10.88 10.88-10.88c6.016 0 10.88 4.864 10.88 10.88s-4.928 10.88-10.88 10.88zM16.064 6.4c-5.312 0-9.6 4.288-9.6 9.6s4.288 9.6 9.6 9.6c5.312 0 9.6-4.288 9.6-9.6s-4.352-9.6-9.6-9.6z"></path>
<path fill="#fff" style="fill: var(--color1, #fff)" d="M9.792 23.872l-1.152-0.512c0.32-0.768 1.344-1.216 2.432-1.728s2.432-1.088 2.432-1.792v-0.96c-0.384-0.32-1.024-1.024-1.152-2.048-0.32-0.32-0.832-0.896-0.832-1.664 0-0.448 0.192-0.832 0.32-1.088-0.128-0.512-0.256-1.472-0.256-2.24 0-2.496 1.728-4.16 4.48-4.16 0.768 0 1.728 0.192 2.24 0.768 1.216 0.256 2.24 1.664 2.24 3.392 0 1.088-0.192 1.984-0.32 2.432 0.128 0.192 0.256 0.512 0.256 0.896 0 0.832-0.448 1.408-0.832 1.664-0.128 1.024-0.704 1.664-1.088 1.984v1.024c0 0.576 1.152 1.024 2.176 1.408 1.216 0.448 2.496 0.96 2.944 1.984l-1.216 0.448c-0.192-0.512-1.216-0.896-2.176-1.216-1.408-0.512-3.008-1.088-3.008-2.56v-1.664l0.32-0.192c0 0 0.768-0.512 0.768-1.536v-0.448l0.384-0.192c0.064 0 0.384-0.192 0.384-0.704 0-0.128-0.128-0.32-0.192-0.384l-0.256-0.256 0.128-0.32c0 0 0.32-1.024 0.32-2.304 0-1.216-0.704-2.112-1.28-2.112h-0.384l-0.192-0.32c0-0.256-0.448-0.512-1.216-0.512-1.984 0-3.2 1.088-3.2 2.88 0 0.832 0.32 2.24 0.32 2.24l0.064 0.32-0.256 0.32c-0.064 0-0.192 0.192-0.192 0.448 0 0.32 0.384 0.704 0.576 0.832l0.256 0.192v0.32c0 0.96 0.832 1.472 0.832 1.536l0.32 0.192v1.664c0 1.536-1.664 2.304-3.2 2.944-0.704 0.256-1.664 0.704-1.792 1.024z"></path>
</symbol>
<symbol id="icon-bin" viewBox="0 0 32 32">
<path fill="#fff" style="fill: var(--color1, #fff)" d="M22.4 21.76h-14.080c-0.192 0-0.384-0.128-0.512-0.256s-0.128-0.384-0.064-0.576l1.216-3.072-1.216-11.456h-3.904v-1.28h4.48c0.32 0 0.576 0.256 0.64 0.576l1.28 12.16c0 0.128 0 0.192-0.064 0.32l-0.896 2.304h13.76l-0.64 1.28z"></path>
<path fill="#fff" style="fill: var(--color1, #fff)" d="M9.728 18.56l-0.256-1.28 14.848-3.072v-5.248h-15.36v-1.28h16c0.384 0 0.64 0.256 0.64 0.64v6.4c0 0.32-0.192 0.576-0.512 0.64l-15.36 3.2z"></path>
<path fill="#fff" style="fill: var(--color1, #fff)" d="M23.040 25.6c-1.408 0-2.56-1.152-2.56-2.56s1.152-2.56 2.56-2.56c1.408 0 2.56 1.152 2.56 2.56s-1.152 2.56-2.56 2.56zM23.040 21.76c-0.704 0-1.28 0.576-1.28 1.28s0.576 1.28 1.28 1.28c0.704 0 1.28-0.576 1.28-1.28s-0.576-1.28-1.28-1.28z"></path>
<path fill="#fff" style="fill: var(--color1, #fff)" d="M7.68 25.6c-1.408 0-2.56-1.152-2.56-2.56s1.152-2.56 2.56-2.56c1.408 0 2.56 1.152 2.56 2.56s-1.152 2.56-2.56 2.56zM7.68 21.76c-0.704 0-1.28 0.576-1.28 1.28s0.576 1.28 1.28 1.28c0.704 0 1.28-0.576 1.28-1.28s-0.576-1.28-1.28-1.28z"></path>
</symbol>
<symbol id="icon-logo" viewBox="0 0 32 32">
<path fill="#fff" style="fill: var(--color1, #fff)" d="M16.081 23.158c-0.123 0.018-0.109 0.157-0.249 0.139-0.123-0.037-0.168 0.009-0.308-0.139s-0.283-0.427-0.283-0.789c-0.052-0.093-0.070-0.232-0.052-0.417 0.035-0.185 0.096-0.472 0.184-0.861 0.088-0.296 0.192-0.704 0.315-1.223 0.122-0.537 0.181-0.747 0.321-1.266 0.052-0.296 0.118-0.614 0.205-0.929 0.105-0.315 0.287-0.908 0.392-1.167 0.105-0.278 0.184-0.491 0.236-0.639 0.14-0.519 0.376-1.109 0.499-1.498 0.14-0.389 0.201-0.697 0.394-1.198 0.192-0.519 0.429-1.204 0.709-2.056 0.385-1.112 0.674-1.954 0.866-2.529 0.21-0.593 0.359-1.019 0.446-1.278 0.105-0.278 0.175-0.491 0.21-0.639 0-0.148 1.059-2.321 1.129-2.395 0.727-1.52 0.937-0.76 1.060-0.76 0.245 0 0.103 0.609 0.243 0.868 0.157 0.241-0.864 2.714-0.97 3.039-0.176 0.543-0.193 0.729-0.333 1.025-0.28 0.667-0.578 1.464-0.892 2.39-0.315 0.908-0.621 1.806-0.919 2.695-0.297 0.871-0.236 0.659-0.499 1.271 0 0.074-0.367 1.156-0.42 1.342s-0.114 0.352-0.184 0.5c-0.070 0.148-0.14 0.287-0.21 0.417-0.052 0.13-0.079 0.195-0.079 0.195 0 0.074-0.026 0.213-0.079 0.417s-0.122 0.454-0.21 0.75c-0.070 0.222-0.157 0.509-0.262 0.861-0.088 0.352-0.149 0.648-0.184 0.889 0.087-0.167-0.227 0.028 0.053-0.306s0.91-0.669 1.155-0.91c0.28-0.259 0.595-0.445 0.945-0.76s0.898-0.794 1.108-0.942c0.21-0.148 0.338-0.261 0.513-0.391s0.566-0.36 0.566-0.36c0.288-0.154 0.255-0.153 0.308-0.153-0.070 0 0.070-0.018 0 0 0.070 0 0.718-0.468 0.718-0.486 0.017-0.018 0.596-0.387 0.491-0.277 0.308-0.135 0.339-0.139 0.513-0.139s0.441-0.101 0.615 0.004c0.174 0.105 0.028 0 0.173 0.109 0.103 0.304-0.148-0.094 0.205 0.304 0.134 0.486 0.082 0.352 0.134 0.778-0.032 0.438-0.243 1.513-0.383 1.957 0 0.148-0.211 0.988-0.264 1.266-0.035 0.259-0.071 0.635-0.071 0.932l0.071 0.543 0.307 0.217c0.14 0 0.526-0.162 0.749-0.33s3.486-2.709 3.486-2.709c0.070 0.074 0.102-0.097 0.615-0.434s0.82-0.543 0.923-0.326c0.103 0.217 0 0.543-0.205 0.76s-4.247 3.617-4.457 3.765c-0.42 0.296-0.805 0.445-1.155 0.445-0.332 0-0.639-0.148-0.919-0.445-0.28-0.315-0.455-0.667-0.525-1.056s-0.14-0.624 0-1.216c0.070-0.815 0.207-1.041 0.207-1.411 0.017-0.389 0.318-0.933 0.161-1.194s-0.367-0.152-0.829 0.265c-0.438 0.241-0.893 0.685-1.435 1.112s-1.096 0.871-1.621 1.389-1.487 1.084-1.837 1.64c-0.21 0.278-0.411 0.528-0.604 0.75-0.192 0.204-0.595 0.575-0.787 0.594z"></path>
<path fill="#fff" style="fill: var(--color1, #fff)" d="M9.546 30.543c-1.016 1.303-2.246 3.799-1.016-3.799 0.176-1.085 0.691-3.36 0.709-3.582 0.018-0.296 0.49-1.996 0.63-2.551s0.297-1.121 0.472-1.695c0.175-0.574 0.332-1.028 0.472-1.362 0.070-0.296 0.116-0.248 0.168-0.471 0.070-0.241 0.234-0.686 0.252-0.76 0.052-0.074 0.026-0.289 0.131-0.604 0.123-0.315 0.219-0.621 0.289-0.917 0.035-0.148 0.105-0.426 0.21-0.834 0.123-0.426 0.262-0.917 0.42-1.473 0.175-0.556 0.341-1.102 0.499-1.639 0.175-0.537 0.324-1.010 0.446-1.417s0.201-0.676 0.236-0.806c0.14-0.222 0.245-0.435 0.315-0.639-0.079-0.138 0.114-0.343 0.131-0.417 0 0 0.11-0.424 0.242-0.73 0.018-0.13-0.373 1.054-0.373 0.98 0-0.093 0.472-1.25 0.525-1.305 0.070-0.056 0.511-0.844 0.511-0.918 0.070-0.056-0.651 1.504-0.263 0.555 0.018-0.13 0.175-0.462 0.263-0.555h1.088l0.308 0.083c-0.070 0.315-0.646 1.602-0.909 2.14-0.087 0.37-0.941 2.525-0.941 2.525 0 0.413 0.437-1.331 0.454-1.238-0.803 2.432-0.14 0.254-0.263 0.587-0.105 0.334-0.484 1.689-0.642 2.171-0.14 0.482-0.052 0.387-0.21 0.868-0.14 0.482-0.35 1.246-0.472 1.617-0.105 0.352-0.274 0.771-0.709 1.965-0.356 0.977 0.513-1.135 0 0-0.41 1.845-0.638 2.135-0.866 2.822-0.289 0.868-0.079 0.276-0.289 0.868-0.192 0.593-0.383 1.078-0.383 1.411-0.192 0.723-0.553 2.544-0.641 2.822-0.070 0.296 0-0.543 0.289-1.33-0.761 3.393-0.761 7.083-1.083 7.626zM10.997 5.994c-0.49 0.019-4.349 0.584-4.828 1-0.925 0.103-6.551 2.704-6.149 0.611-0.307 0 7.074-2.001 7.074-2.001-3.384 0.829 1.846-0.462 3.22-0.611s4.459-0.445 4.757-0.5c0.315-0.056-3.121 0.354-2.841 0.298 1.467-0.109 2.841-0.298 2.841-0.298 0.394 0 1.55-3.366 2.487-4.235s2.016 0.651 1.26 1.628c-1.025 0.217-1.369 1.194-1.369 1.194 0.417-0.651-1.042 1.376-0.727 1.413s2.752 0.195 2.752 0.195c0.367 0.056 1.072-0.074 1.247 0 0.402 0.093 10.605-0.171 11.176-0.413 0.513-0.217-1.025 1.413-2.051 1.552-0.513-0.139-4.561 0.111-4.614 0.167-0.052 0.037 1.205-0.056-1.025 0 1.64 0.139-2.166 0-2.358 0 1.23-0.065-1.316-0.074-1.561-0.167-0.088-0.093-0.691 0.074-0.814 0-0.105-0.074-0.376 0.037-0.656 0-0.262-0.056-0.682-0.102-1.26-0.139-0.49 0.056-0.468 0-0.836 0s-0.513-0.093-0.513 0h-2.982c-0.175 0.019-0.131-0.037-0.446 0-0.315 0.019 0-0.012-0.919 0.139-0.297 0.019-0.866 0.167-0.866 0.167z"></path>
</symbol>
<symbol id="icon-search" viewBox="0 0 32 32">
<path d="M30.547 22.57l-3.332-2.896c-0.717-0.578-1.621-0.961-2.596-1.1s-1.977-0.027-2.877 0.321l-1.449-1.23c1.707-1.936 2.487-4.349 2.182-6.754s-1.672-4.622-3.825-6.205c-2.154-1.584-4.934-2.416-7.782-2.329s-5.551 1.085-7.566 2.795c-2.015 1.71-3.192 4.004-3.294 6.421s0.879 4.776 2.745 6.604c1.866 1.828 4.478 2.988 7.312 3.246s5.677-0.403 7.958-1.852l1.433 1.216c-0.459 0.765-0.623 1.632-0.47 2.48s0.616 1.634 1.323 2.247l3.413 2.896c0.905 0.768 2.133 1.199 3.413 1.199s2.507-0.431 3.413-1.199c0.46-0.382 0.825-0.838 1.075-1.341s0.378-1.044 0.378-1.59-0.129-1.087-0.378-1.59c-0.25-0.503-0.615-0.959-1.075-1.341zM16.895 16.777c-1.127 0.954-2.561 1.603-4.122 1.865s-3.178 0.126-4.648-0.392c-1.47-0.517-2.726-1.393-3.609-2.516s-1.355-2.443-1.355-3.793 0.472-2.67 1.355-3.793c0.884-1.123 2.14-1.999 3.609-2.516s3.087-0.654 4.648-0.392c1.561 0.262 2.995 0.911 4.122 1.865 0.75 0.635 1.344 1.388 1.75 2.218s0.615 1.72 0.615 2.618c0 0.899-0.209 1.788-0.615 2.618s-1.001 1.584-1.75 2.218zM28.277 26.436c-0.15 0.128-0.328 0.23-0.524 0.299s-0.407 0.105-0.619 0.105-0.423-0.036-0.619-0.105c-0.196-0.069-0.374-0.171-0.524-0.299l-3.413-2.896c-0.151-0.127-0.271-0.278-0.352-0.445s-0.124-0.345-0.124-0.526c0-0.18 0.042-0.359 0.124-0.525s0.201-0.318 0.352-0.445c0.15-0.128 0.328-0.23 0.524-0.299s0.407-0.105 0.619-0.105c0.212 0 0.423 0.036 0.619 0.105s0.374 0.171 0.524 0.299l3.413 2.896c0.151 0.127 0.271 0.278 0.352 0.445s0.124 0.345 0.124 0.525c0 0.18-0.042 0.359-0.124 0.526s-0.202 0.318-0.352 0.445z"></path>
</symbol>
<symbol id="icon-UA" viewBox="0 0 32 32">
<path fill="#b6f7fb" style="fill: var(--color2, #b6f7fb)" d="M7.111 0.889h17.778c1.964 0 3.556 1.592 3.556 3.556v23.111c0 1.964-1.592 3.556-3.556 3.556h-17.778c-1.964 0-3.556-1.592-3.556-3.556v-23.111c0-1.964 1.592-3.556 3.556-3.556z"></path>
<path fill="#156dd1" style="fill: var(--color3, #156dd1)" d="M3.556 17.007h24.889v-16.119h-24.889v16.119z"></path>
<path fill="#ffd948" style="fill: var(--color4, #ffd948)" d="M3.556 31.111h24.889v-14.104h-24.889v14.104z"></path>
</symbol>
<symbol id="icon-US" viewBox="0 0 32 32">
<path fill="#fff" style="fill: var(--color1, #fff)" d="M2.286 4.571h27.429c1.262 0 2.286 1.023 2.286 2.286v18.286c0 1.262-1.023 2.286-2.286 2.286h-27.429c-1.262 0-2.286-1.023-2.286-2.286v-18.286c0-1.262 1.023-2.286 2.286-2.286z"></path>
<path fill="#d02f44" style="fill: var(--color5, #d02f44)" d="M32 4.571h-32v1.524h32v-1.524zM32 7.619h-32v1.524h32v-1.524zM0 10.667h32v1.524h-32v-1.524zM32 13.714h-32v1.524h32v-1.524zM0 16.762h32v1.524h-32v-1.524zM32 19.809h-32v1.524h32v-1.524zM0 22.857h32v1.524h-32v-1.524zM32 25.905h-32v1.524h32v-1.524z"></path>
<path fill="#46467f" style="fill: var(--color6, #46467f)" d="M0 4.571h13.714v10.667h-13.714v-10.667z"></path>
<path fill="#000" style="fill: var(--color7, #000)" d="M3.048 6.857c0 0.421-0.341 0.762-0.762 0.762s-0.762-0.341-0.762-0.762c0-0.421 0.341-0.762 0.762-0.762s0.762 0.341 0.762 0.762zM6.096 6.857c0 0.421-0.341 0.762-0.762 0.762s-0.762-0.341-0.762-0.762c0-0.421 0.341-0.762 0.762-0.762s0.762 0.341 0.762 0.762zM8.382 7.619c0.421 0 0.762-0.341 0.762-0.762s-0.341-0.762-0.762-0.762c-0.421 0-0.762 0.341-0.762 0.762s0.341 0.762 0.762 0.762zM12.191 6.857c0 0.421-0.341 0.762-0.762 0.762s-0.762-0.341-0.762-0.762 0.341-0.762 0.762-0.762c0.421 0 0.762 0.341 0.762 0.762zM3.81 9.143c0.421 0 0.762-0.341 0.762-0.762s-0.341-0.762-0.762-0.762c-0.421 0-0.762 0.341-0.762 0.762s0.341 0.762 0.762 0.762zM7.62 8.381c0 0.421-0.341 0.762-0.762 0.762s-0.762-0.341-0.762-0.762c0-0.421 0.341-0.762 0.762-0.762s0.762 0.341 0.762 0.762zM9.905 9.143c0.421 0 0.762-0.341 0.762-0.762s-0.341-0.762-0.762-0.762c-0.421 0-0.762 0.341-0.762 0.762s0.341 0.762 0.762 0.762zM12.191 9.905c0 0.421-0.341 0.762-0.762 0.762s-0.762-0.341-0.762-0.762 0.341-0.762 0.762-0.762c0.421 0 0.762 0.341 0.762 0.762zM8.382 10.667c0.421 0 0.762-0.341 0.762-0.762s-0.341-0.762-0.762-0.762c-0.421 0-0.762 0.341-0.762 0.762s0.341 0.762 0.762 0.762zM6.096 9.905c0 0.421-0.341 0.762-0.762 0.762s-0.762-0.341-0.762-0.762c0-0.421 0.341-0.762 0.762-0.762s0.762 0.341 0.762 0.762zM2.286 10.667c0.421 0 0.762-0.341 0.762-0.762s-0.341-0.762-0.762-0.762c-0.421 0-0.762 0.341-0.762 0.762s0.341 0.762 0.762 0.762zM4.572 11.429c0 0.421-0.341 0.762-0.762 0.762s-0.762-0.341-0.762-0.762c0-0.421 0.341-0.762 0.762-0.762s0.762 0.341 0.762 0.762zM6.858 12.191c0.421 0 0.762-0.341 0.762-0.762s-0.341-0.762-0.762-0.762c-0.421 0-0.762 0.341-0.762 0.762s0.341 0.762 0.762 0.762zM10.667 11.429c0 0.421-0.341 0.762-0.762 0.762s-0.762-0.341-0.762-0.762c0-0.421 0.341-0.762 0.762-0.762s0.762 0.341 0.762 0.762zM11.429 13.714c0.421 0 0.762-0.341 0.762-0.762s-0.341-0.762-0.762-0.762c-0.421 0-0.762 0.341-0.762 0.762s0.341 0.762 0.762 0.762zM9.144 12.953c0 0.421-0.341 0.762-0.762 0.762s-0.762-0.341-0.762-0.762c0-0.421 0.341-0.762 0.762-0.762s0.762 0.341 0.762 0.762zM5.334 13.714c0.421 0 0.762-0.341 0.762-0.762s-0.341-0.762-0.762-0.762c-0.421 0-0.762 0.341-0.762 0.762s0.341 0.762 0.762 0.762zM3.048 12.953c0 0.421-0.341 0.762-0.762 0.762s-0.762-0.341-0.762-0.762c0-0.421 0.341-0.762 0.762-0.762s0.762 0.341 0.762 0.762z"></path>
</symbol>
</defs>
</svg>
