<svg width="24" height="25" viewBox="0 0 24 25" fill="none" xmlns="http://www.w3.org/2000/svg">
<path d="M21.53 7.22813C21.378 7.14036 21.2055 7.09415 21.03 7.09415C20.8545 7.09415 20.682 7.14036 20.53 7.22813L17 8.96813C16.9715 8.1917 16.6429 7.4566 16.0834 6.91756C15.5238 6.37853 14.777 6.0776 14 6.07813H5C4.20435 6.07813 3.44129 6.3942 2.87868 6.95681C2.31607 7.51941 2 8.28248 2 9.07813V15.0781C2 15.8738 2.31607 16.6368 2.87868 17.1994C3.44129 17.7621 4.20435 18.0781 5 18.0781H14C14.777 18.0786 15.5238 17.7777 16.0834 17.2387C16.6429 16.6997 16.9715 15.9646 17 15.1881L20.56 16.9681C20.6963 17.038 20.8468 17.0756 21 17.0781C21.1872 17.0787 21.3709 17.0268 21.53 16.9281C21.6741 16.8381 21.7929 16.7127 21.8751 16.564C21.9574 16.4153 22.0003 16.2481 22 16.0781V8.07813C22.0003 7.90818 21.9574 7.74095 21.8751 7.59223C21.7929 7.44351 21.6741 7.3182 21.53 7.22813ZM15 15.0781C15 15.3433 14.8946 15.5977 14.7071 15.7852C14.5196 15.9728 14.2652 16.0781 14 16.0781H5C4.73478 16.0781 4.48043 15.9728 4.29289 15.7852C4.10536 15.5977 4 15.3433 4 15.0781V9.07813C4 8.81291 4.10536 8.55856 4.29289 8.37102C4.48043 8.18348 4.73478 8.07813 5 8.07813H14C14.2652 8.07813 14.5196 8.18348 14.7071 8.37102C14.8946 8.55856 15 8.81291 15 9.07813V15.0781ZM20 14.4581L17 12.9581V11.1981L20 9.69813V14.4581Z" fill="white"/>
</svg>
