<svg width="24" height="24" viewBox="0 0 24 24" fill="none" xmlns="http://www.w3.org/2000/svg">
<path d="M4.69824 1.45194C4.72294 1.45194 4.7435 1.45422 4.75959 1.45723C5.18042 2.07083 7.43941 5.50175 7.84938 6.14309C7.85089 6.21063 7.82801 6.38208 7.69957 6.62669C7.5629 6.88743 7.13721 7.64752 6.53181 8.71073L6.06081 9.53797L6.60659 10.3178C7.01358 10.8977 7.98175 12.1583 9.8946 14.0777C11.8157 16.0054 13.068 16.9738 13.6438 17.3799L14.4213 17.9276L15.2465 17.455C16.0464 16.9971 17.0128 16.4484 17.3272 16.283C17.5794 16.1499 17.7519 16.1394 17.7987 16.1394C17.8062 16.1394 17.8126 16.1394 17.8178 16.1402C18.3907 16.5006 21.8853 18.8287 22.5022 19.2528C22.5123 19.3129 22.5029 19.4434 22.3895 19.6066C21.4393 20.9257 20.091 22.302 19.5633 22.4992C16.756 22.3664 12.8172 19.8915 8.45835 15.5178C4.09986 11.1438 1.63406 7.19729 1.5046 4.39171C1.6941 3.8612 3.06783 2.50139 4.37112 1.55693C4.46769 1.49054 4.58708 1.45193 4.69824 1.45194ZM4.69861 -0.00214565C4.30231 -0.00225299 3.88198 0.117729 3.51742 0.372031C3.48224 0.396763 -0.0406043 2.90982 0.00577898 4.3657C0.134526 8.45641 4.09772 13.2652 7.39967 16.5789C10.7016 19.8919 15.4955 23.8698 19.5913 24.0019L19.6249 24.0019C21.059 24.0023 23.5807 20.5164 23.605 20.4819C24.2669 19.5346 24.0258 18.4914 23.4238 18.0676C23.0575 17.8094 19.0496 15.1356 18.5583 14.8345C18.3443 14.7031 18.0831 14.6389 17.7991 14.6388C17.4327 14.6387 17.027 14.7459 16.6311 14.9545C16.2452 15.1581 15.0763 15.8245 14.5044 16.1519C14.0008 15.7972 12.8178 14.8881 10.9539 13.0164C9.10164 11.1589 8.18737 9.96248 7.83165 9.45466C8.15773 8.88181 8.82229 7.71017 9.02447 7.32449C9.40749 6.59742 9.45112 5.87137 9.14065 5.38162C8.84926 4.92002 6.19562 0.929563 5.92179 0.549764C5.6633 0.191357 5.20044 -0.00200973 4.69861 -0.00214565Z" fill="white"/>
</svg>
