<svg width="24" height="24" viewBox="0 0 24 24" fill="none" xmlns="http://www.w3.org/2000/svg">
<path d="M0 12.6316V18.9474C0 19.2824 0.114935 19.6037 0.31952 19.8406C0.524105 20.0774 0.801582 20.2105 1.09091 20.2105H2.18182C2.18182 21.2156 2.52662 22.1794 3.14038 22.8901C3.75413 23.6008 4.58656 24 5.45455 24C6.32253 24 7.15496 23.6008 7.76871 22.8901C8.38247 22.1794 8.72727 21.2156 8.72727 20.2105H15.2727C15.2727 21.2156 15.6175 22.1794 16.2313 22.8901C16.845 23.6008 17.6775 24 18.5455 24C19.4134 24 20.2459 23.6008 20.8596 22.8901C21.4734 22.1794 21.8182 21.2156 21.8182 20.2105H22.9091C23.1984 20.2105 23.4759 20.0774 23.6805 19.8406C23.8851 19.6037 24 19.2824 24 18.9474V3.78947C24 2.78444 23.6552 1.82058 23.0414 1.10991C22.4277 0.399247 21.5953 0 20.7273 0H10.9091C10.0411 0 9.20868 0.399247 8.59492 1.10991C7.98117 1.82058 7.63636 2.78444 7.63636 3.78947V6.31579H5.45455C4.94647 6.31579 4.44537 6.45276 3.99094 6.71585C3.5365 6.97895 3.14121 7.36094 2.83636 7.83158L0.218182 11.8737C0.186274 11.9286 0.160608 11.988 0.141818 12.0505L0.0763637 12.1895C0.0282175 12.3303 0.00235096 12.4801 0 12.6316ZM17.4545 20.2105C17.4545 19.9607 17.5185 19.7165 17.6384 19.5088C17.7583 19.301 17.9286 19.1391 18.128 19.0435C18.3273 18.9479 18.5467 18.9229 18.7583 18.9716C18.9699 19.0204 19.1643 19.1407 19.3168 19.3173C19.4694 19.494 19.5733 19.7191 19.6154 19.9641C19.6575 20.2091 19.6359 20.4631 19.5533 20.6939C19.4708 20.9247 19.3309 21.122 19.1515 21.2608C18.9721 21.3996 18.7612 21.4737 18.5455 21.4737C18.2561 21.4737 17.9787 21.3406 17.7741 21.1037C17.5695 20.8668 17.4545 20.5455 17.4545 20.2105ZM9.81818 3.78947C9.81818 3.45446 9.93312 3.13317 10.1377 2.89629C10.3423 2.6594 10.6198 2.52632 10.9091 2.52632H20.7273C21.0166 2.52632 21.2941 2.6594 21.4987 2.89629C21.7032 3.13317 21.8182 3.45446 21.8182 3.78947V17.6842H20.9673C20.6605 17.2934 20.2866 16.9812 19.8696 16.7676C19.4525 16.5539 19.0015 16.4436 18.5455 16.4436C18.0894 16.4436 17.6384 16.5539 17.2213 16.7676C16.8043 16.9812 16.4304 17.2934 16.1236 17.6842H9.81818V3.78947ZM7.63636 11.3684H3.27273L4.58182 9.34737C4.68343 9.19049 4.8152 9.06316 4.96668 8.97546C5.11816 8.88776 5.28519 8.8421 5.45455 8.8421H7.63636V11.3684ZM4.36364 20.2105C4.36364 19.9607 4.42762 19.7165 4.54749 19.5088C4.66736 19.301 4.83774 19.1391 5.03707 19.0435C5.23641 18.9479 5.45576 18.9229 5.66737 18.9716C5.87899 19.0204 6.07337 19.1407 6.22593 19.3173C6.3785 19.494 6.4824 19.7191 6.52449 19.9641C6.56659 20.2091 6.54498 20.4631 6.46241 20.6939C6.37985 20.9247 6.24002 21.122 6.06062 21.2608C5.88122 21.3996 5.67031 21.4737 5.45455 21.4737C5.16522 21.4737 4.88774 21.3406 4.68316 21.1037C4.47857 20.8668 4.36364 20.5455 4.36364 20.2105ZM2.18182 13.8947H7.63636V17.4063C6.99254 16.7401 6.14742 16.3954 5.28512 16.4475C4.42282 16.4995 3.61323 16.9441 3.03273 17.6842H2.18182V13.8947Z" fill="white"/>
</svg>
